# AST/ASF file generated using VICON BodyLanguage
# -----------------------------------------------
:version 1.10
:name VICON
:units
  mass 1.0
  length 0.45
  angle deg
:documentation
   .ast/.asf automatically generated from VICON data using
   VICON BodyBuilder and BodyLanguage model FoxedUp or BRILLIANT.MOD
:root
   order TX TY TZ RX RY RZ
   axis XYZ
   position 0 0 0  
   orientation 0 0 0 
:bonedata
  begin
     id 1 
     name lhipjoint
     direction 0.576517 -0.752066 0.319413 
     length 2.45433 
     axis 0 0 0  XYZ
  end
  begin
     id 2 
     name lfemur
     direction 0.34202 -0.939693 0  
     length 7.54459  
     axis 0 0 20  XYZ
    dof rx ry rz
    limits (-160.0 20.0)
           (-70.0 70.0)
           (-60.0 70.0)
  end
  begin
     id 3 
     name ltibia
     direction 0.34202 -0.939693 0   
     length 7.73986   
     axis 0 0 20   XYZ
    dof rx
    limits (-10.0 170.0)
  end
  begin
     id 4 
     name lfoot
     direction 0.090693 -0.249177 0.964202   
     length 2.28437   
     axis -90 7.62852e-016 20   XYZ
    dof rx rz
    limits (-45.0 90.0)
           (-70.0 20.0)
  end
  begin
     id 5 
     name ltoes
     direction 1.5356e-011 -4.21928e-011 1   
     length 1.14243   
     axis -90 7.62852e-016 20   XYZ
    dof rx
    limits (-90.0 20.0)
  end
  begin
     id 6 
     name rhipjoint
     direction -0.573937 -0.753736 0.320122   
     length 2.44889  
     axis 0 0 0  XYZ 
  end
  begin
     id 7 
     name rfemur
     direction -0.34202 -0.939693 0   
     length 7.50166   
     axis 0 0 -20   XYZ
    dof rx ry rz
    limits (-160.0 20.0)
           (-70.0 70.0)
           (-70.0 60.0)
  end
  begin
     id 8 
     name rtibia
     direction -0.34202 -0.939693 0   
     length 7.54266   
     axis 0 0 -20   XYZ
    dof rx
    limits (-10.0 170.0)
 end
 begin
     id 9 
     name rfoot
     direction -0.114017 -0.31326 0.942798   
     length 2.34212  
     axis -90 -7.62852e-016 -20   XYZ
    dof rx rz
    limits (-45.0 90.0)
           (-20.0 70.0)
  end
  begin
     id 10 
     name rtoes
     direction -1.53557e-011 -4.21867e-011 1   
     length 1.16246   
     axis -90 -7.62852e-016 -20   XYZ
    dof rx
    limits (-90.0 20.0)
  end
  begin
     id 11 
     name lowerback
     direction -0.0228371 0.999155 -0.034167   
     length 2.0537   
     axis 0 0 0   XYZ
    dof rx ry rz
    limits (-20.0 45.0)
           (-30.0 30.0)
           (-30.0 30.0)
  end
  begin
     id 12 
     name upperback
     direction 0.0198981 0.999794 0.00389455   
     length 2.05302   
     axis 0 0 0   XYZ
    dof rx ry rz
    limits (-20.0 45.0)
           (-30.0 30.0)
           (-30.0 30.0)
  end
  begin
     id 13 
     name thorax
     direction 0.0304566 0.99935 0.0192987   
     length 2.05315   
     axis 0 0 0   XYZ
    dof rx ry rz
    limits (-20.0 45.0)
           (-30.0 30.0)
           (-30.0 30.0)
  end
  begin
     id 14 
     name lowerneck
     direction -0.0196762 0.99417 0.106017   
     length 1.82056   
     axis 0 0 0   XYZ
    dof rx ry rz
    limits (-20.0 45.0)
           (-30.0 30.0)
           (-30.0 30.0)
  end
  begin
     id 15 
     name upperneck
     direction 0.00517787 0.9802 -0.197944   
     length 1.83835   
     axis 0 0 0   XYZ
    dof rx ry rz
    limits (-20.0 45.0)
           (-30.0 30.0)
           (-30.0 30.0)
  end
  begin
     id 16
     name head
     direction 0.00211419 0.996945 -0.078081  
     length 1.85629  
     axis 0 0 0   XYZ
    dof rx ry rz
    limits (-20.0 45.0)
           (-30.0 30.0)
           (-30.0 30.0)
  end
  begin
     id 17 
     name lclavicle
     direction 0.930001 0.365811 -0.0357824  
     length 3.81961  
     axis 0 0 0   XYZ
    dof ry rz
    limits (-20.0 10.0)
           (0.0 20.0)
  end
  begin
     id 18 
     name lhumerus
     direction 1 -4.48968e-011 -3.06644e-027   
     length 5.14507   
     axis 180 -30 -90   XYZ
    dof rx ry rz
    limits (-60.0 90.0)
           (-90.0 90.0)
           (-90.0 90.0)
  end
  begin
     id 19
     name lradius
     direction 1 -4.48965e-011 9.06925e-028   
     length 3.50646   
     axis 180 -30 -90   XYZ
    dof rx
    limits (-10.0 170.0)
  end
  begin
     id 20
     name lwrist
     direction 1 -4.48957e-011 1.03922e-027   
     length 1.75323   
     axis -2.56395e-016 90 90   XYZ
    dof ry
    limits (-180.0 0.0)
 end
  begin
     id 21 
     name lhand
     direction 1 -4.48967e-011 2.08017e-027   
     length 0.629969   
     axis -1.32723e-015 90 90   XYZ
    dof rx rz
    limits (-90.0 90.0)
           (-45.0 45.0)
  end
  begin
     id 22 
     name lfingers
     direction 1 -4.49089e-011 4.20095e-027   
     length 0.507897   
     axis -2.6545e-015 90 90   XYZ
    dof rx
    limits (0.0 90.0)
  end
  begin
     id 23
     name lthumb
     direction 0.707107 -6.35001e-011 0.707107   
     length 0.729241   
     axis -90 45 5.05613e-014   XYZ
    dof rx rz
    limits (-45.0 45.0)
           (-45.0 45.0)
  end
  begin
     id 24 
     name rclavicle
     direction -0.881882 0.464123 -0.0829113   
     length 3.47515  
     axis 0 0 0   XYZ 
    dof ry rz
    limits (-10.0 20.0)
           (-20.0 0.0)
  end
  begin
     id 25 
     name rhumerus
     direction -1 -4.48961e-011 -1.55672e-027  
     length 5.232   
     axis 180 30 90   XYZ
    dof rx ry rz
    limits (-90.0 60.0)
           (-90.0 90.0)
           (-90.0 90.0)
  end
  begin
     id 26 
     name rradius
     direction -1 -4.48963e-011 6.18178e-029   
     length 3.65641   
     axis 180 30 90   XYZ
    dof rx
    limits (-10.0 170.0)
  end
  begin
     id 27 
     name rwrist
     direction -1 -4.48982e-011 1.04136e-027   
     length 1.8282   
     axis -2.56395e-016 -90 -90   XYZ
    dof ry
    limits (-180.0 0.0)
  end
  begin
     id 28
     name rhand
     direction -1 -4.48929e-011 2.07378e-027   
     length 0.656807   
     axis -1.32723e-015 -90 -90   XYZ
    dof rx rz
    limits (-90.0 90.0)
           (-45.0 45.0)
  end
  begin
     id 29
     name rfingers
     direction -1 -4.489e-011 4.13816e-027   
     length 0.529535   
     axis -2.6545e-015 -90 -90   XYZ
    dof rx
    limits (0.0 90.0)
  end
  begin
     id 30
     name rthumb
     direction -0.707107 -6.34843e-011 0.707107   
     length 0.760309   
     axis -90 -45 -5.05613e-014   XYZ
    dof rx rz
    limits (-45.0 45.0)
           (-45.0 45.0)
  end
:hierarchy
  begin
    root lhipjoint rhipjoint lowerback
    lhipjoint lfemur
    lfemur ltibia
    ltibia lfoot
    lfoot ltoes
    rhipjoint rfemur
    rfemur rtibia
    rtibia rfoot
    rfoot rtoes
    lowerback upperback
    upperback thorax
    thorax lowerneck lclavicle rclavicle
    lowerneck upperneck
    upperneck head
    lclavicle lhumerus
    lhumerus lradius
    lradius lwrist
    lwrist lhand lthumb
    lhand lfingers
    rclavicle rhumerus
    rhumerus rradius
    rradius rwrist
    rwrist rhand rthumb
    rhand rfingers
  end

#!OML:ASF H:\ManfredETheater\Project 1\Capture day 1\Session 1\subject.ASF
:FULLY-SPECIFIED
:DEGREES
31
root 15.4246 14.6067 29.0809 -159.496 -29.7128 -188.1
lowerback 20.1137 -7.28568 -1.57767
upperback 3.24068 -10.1416 3.69551
thorax -6.61106 -5.0753 7.41285
lowerneck -20.005 2.34642 -2.02469
upperneck -3.20718 2.66536 -1.95652
head 2.39927 0.839166 -0.0879611
rclavicle -4.17448e-015 -3.73715e-014
rhumerus -88.6118 1.74848 -65.6566
rradius 69.9781
rwrist -5.51949
rhand -29.6622 8.61937
rfingers 7.12502
rthumb -2.99125 -21.3394
lclavicle -4.17448e-015 -3.73715e-014
lhumerus -42.9151 -34.7201 103.994
lradius 130.303
lwrist 7.86084
lhand -26.7198 -18.898
lfingers 7.12502
lthumb -0.149435 11.0817
rfemur -76.2664 -8.10735 5.04571
rtibia 53.3558
rfoot -4.42031 -9.60149
rtoes -38.0978
lfemur 0.377228 -4.59814 -19.135
ltibia 46.1333
lfoot -5.60251 -20.753
ltoes -15.5408
32
root 15.2257 14.6557 28.5109 -160.008 -29.0831 -188.552
lowerback 19.2975 -7.38227 -1.81985
upperback 3.32373 -10.3344 3.6045
thorax -6.04266 -5.1975 7.337
lowerneck -19.7481 2.52853 -2.08149
upperneck -2.90282 2.9801 -2.52128
head 2.46893 0.984786 -0.238651
rclavicle -2.26615e-014 2.18663e-014
rhumerus -88.8994 1.4132 -64.1324
rradius 70.5296
rwrist -5.11399
rhand -29.5102 8.88907
rfingers 7.12502
rthumb -2.84445 -21.0717
lclavicle -2.26615e-014 2.18663e-014
lhumerus -43.8771 -34.1177 103.888
lradius 130.698
lwrist 7.94387
lhand -26.6579 -18.9548
lfingers 7.12502
lthumb -0.089654 11.025
rfemur -75.1305 -7.79018 4.75841
rtibia 49.8378
rfoot -3.50097 -9.05142
rtoes -37.2606
lfemur 3.87854 -6.31462 -20.3651
ltibia 42.8154
lfoot 1.32155 -19.8531
ltoes -13.256
33
root 15.0276 14.7005 27.938 -160.427 -28.4608 -189.057
lowerback 18.4626 -7.45222 -2.0834
upperback 3.33363 -10.48 3.51752
thorax -5.54393 -5.28795 7.26904
lowerneck -19.4714 2.68605 -2.15214
upperneck -2.55161 3.2725 -3.09864
head 2.55356 1.11875 -0.393106
rclavicle -7.65321e-014 1.63003e-014
rhumerus -88.8169 0.850282 -62.5762
rradius 71.0083
rwrist -5.35521
rhand -29.41 8.9832
rfingers 7.12502
rthumb -2.74767 -20.9788
lclavicle -7.65321e-014 1.63003e-014
lhumerus -44.6024 -33.2261 103.698
lradius 130.338
lwrist 7.63174
lhand -26.6891 -18.8907
lfingers 7.12502
lthumb -0.119821 11.089
rfemur -73.9755 -7.51651 4.52309
rtibia 46.8808
rfoot -3.00444 -8.69266
rtoes -36.3927
lfemur 6.9949 -8.10749 -21.851
ltibia 40.0295
lfoot 7.76027 -18.761
ltoes -9.79986
34
root 14.8321 14.7392 27.3644 -160.748 -27.8632 -189.602
lowerback 17.6417 -7.49622 -2.36278
upperback 3.24936 -10.5755 3.44448
thorax -5.15306 -5.34241 7.22565
lowerneck -19.1909 2.82237 -2.21673
upperneck -2.1432 3.54358 -3.6984
head 2.6603 1.23982 -0.558033
rclavicle 1.10524e-013 -2.70347e-014
rhumerus -88.3857 0.0735671 -61.0421
rradius 71.4017
rwrist -6.09531
rhand -29.3512 8.94486
rfingers 7.12502
rthumb -2.69092 -21.0179
lclavicle 1.10524e-013 -2.70347e-014
lhumerus -45.087 -32.0854 103.439
lradius 129.235
lwrist 6.94309
lhand -26.8263 -18.7129
lfingers 7.12502
lthumb -0.252313 11.2667
rfemur -72.8685 -7.2686 4.33445
rtibia 44.5839
rfoot -2.79953 -8.46803
rtoes -35.6352
lfemur 9.5893 -9.79441 -23.4846
ltibia 38.1028
lfoot 12.844 -17.5592
ltoes -6.56471
35
root 14.6406 14.7712 26.7928 -160.981 -27.2948 -190.154
lowerback 16.8485 -7.49706 -2.66489
upperback 3.07953 -10.6014 3.40881
thorax -4.86373 -5.35264 7.23489
lowerneck -18.926 2.9377 -2.26344
upperneck -1.708 3.78629 -4.33541
head 2.78276 1.34125 -0.741394
rclavicle 9.66093e-014 9.54166e-015
rhumerus -87.5976 -0.920035 -59.5674
rradius 71.6747
rwrist -7.04616
rhand -29.321 8.84573
rfingers 7.12502
rthumb -2.66173 -21.1174
lclavicle 9.66093e-014 9.54166e-015
lhumerus -45.2976 -30.7655 103.131
lradius 127.438
lwrist 6.00027
lhand -27.0419 -18.479
lfingers 7.12502
lthumb -0.4606 11.5002
rfemur -71.8418 -7.01259 4.20478
rtibia 42.9824
rfoot -2.73239 -8.30774
rtoes -35.1034
lfemur 11.5105 -11.1352 -25.0932
ltibia 37.355
lfoot 16.1137 -16.2575
ltoes -4.43182
36
root 14.4543 14.7972 26.2253 -161.164 -26.7574 -190.66
lowerback 16.1234 -7.44652 -2.95314
upperback 2.83333 -10.5437 3.41413
thorax -4.69545 -5.3122 7.2868
lowerneck -18.6996 3.03573 -2.25771
upperneck -1.2608 3.99641 -5.01409
head 2.92124 1.41918 -0.951547
rclavicle -1.94809e-014 -2.3059e-014
rhumerus -86.4763 -2.11318 -58.2306
rradius 71.8002
rwrist -7.90984
rhand -29.2969 8.71339
rfingers 7.12502
rthumb -2.63845 -21.25
lclavicle -1.94809e-014 -2.3059e-014
lhumerus -45.2619 -29.3462 102.803
lradius 125.027
lwrist 4.91836
lhand -27.3582 -18.2463
lfingers 7.12502
lthumb -0.766054 11.732
rfemur -70.897 -6.70669 4.16142
rtibia 42.0944
rfoot -2.58915 -8.09271
rtoes -35.1204
lfemur 12.6479 -11.9133 -26.4773
ltibia 38.0005
lfoot 17.6262 -14.7104
ltoes -3.40821
